<mxfile host="app.diagrams.net" modified="2021-01-20T10:30:58.558Z" agent="5.0 (Windows NT 6.3; Win64; x64) AppleWebKit/537.36 (KHTML, like Gecko) Chrome/87.0.4280.141 Safari/537.36" etag="CDMZNnHE0Y1OLAMAPyuh" version="14.2.5" type="github">
  <diagram id="Vvy8ZNYeZBU5IeqOEl0n" name="Page-1">
    <mxGraphModel dx="868" dy="1619" grid="1" gridSize="10" guides="1" tooltips="1" connect="1" arrows="1" fold="1" page="1" pageScale="1" pageWidth="827" pageHeight="1169" math="0" shadow="0">
      <root>
        <mxCell id="0" />
        <mxCell id="1" parent="0" />
        <mxCell id="F6hUvUynQKpErKbhB6TS-1" value="" style="rounded=0;whiteSpace=wrap;html=1;" vertex="1" parent="1">
          <mxGeometry x="140" y="20" width="600" height="380" as="geometry" />
        </mxCell>
        <mxCell id="F6hUvUynQKpErKbhB6TS-7" style="edgeStyle=orthogonalEdgeStyle;rounded=0;orthogonalLoop=1;jettySize=auto;html=1;exitX=0.5;exitY=0.5;exitDx=0;exitDy=0;exitPerimeter=0;entryX=0;entryY=0.5;entryDx=0;entryDy=0;" edge="1" parent="1" source="F6hUvUynQKpErKbhB6TS-2" target="F6hUvUynQKpErKbhB6TS-3">
          <mxGeometry relative="1" as="geometry" />
        </mxCell>
        <mxCell id="F6hUvUynQKpErKbhB6TS-8" style="edgeStyle=orthogonalEdgeStyle;rounded=0;orthogonalLoop=1;jettySize=auto;html=1;entryX=0;entryY=0.5;entryDx=0;entryDy=0;" edge="1" parent="1" source="F6hUvUynQKpErKbhB6TS-2" target="F6hUvUynQKpErKbhB6TS-4">
          <mxGeometry relative="1" as="geometry" />
        </mxCell>
        <mxCell id="F6hUvUynQKpErKbhB6TS-2" value="Utilisateur" style="shape=umlActor;verticalLabelPosition=bottom;verticalAlign=top;html=1;outlineConnect=0;" vertex="1" parent="1">
          <mxGeometry x="70" y="70" width="30" height="60" as="geometry" />
        </mxCell>
        <mxCell id="F6hUvUynQKpErKbhB6TS-9" style="edgeStyle=orthogonalEdgeStyle;rounded=0;orthogonalLoop=1;jettySize=auto;html=1;exitX=0.5;exitY=1;exitDx=0;exitDy=0;entryX=0.5;entryY=0;entryDx=0;entryDy=0;" edge="1" parent="1" source="F6hUvUynQKpErKbhB6TS-3" target="F6hUvUynQKpErKbhB6TS-4">
          <mxGeometry relative="1" as="geometry" />
        </mxCell>
        <mxCell id="F6hUvUynQKpErKbhB6TS-11" style="edgeStyle=orthogonalEdgeStyle;rounded=0;orthogonalLoop=1;jettySize=auto;html=1;exitX=1;exitY=0.5;exitDx=0;exitDy=0;entryX=0;entryY=0.5;entryDx=0;entryDy=0;" edge="1" parent="1" source="F6hUvUynQKpErKbhB6TS-3" target="F6hUvUynQKpErKbhB6TS-10">
          <mxGeometry relative="1" as="geometry" />
        </mxCell>
        <mxCell id="F6hUvUynQKpErKbhB6TS-3" value="Se connecter" style="ellipse;whiteSpace=wrap;html=1;" vertex="1" parent="1">
          <mxGeometry x="190" y="70" width="90" height="60" as="geometry" />
        </mxCell>
        <mxCell id="F6hUvUynQKpErKbhB6TS-13" style="edgeStyle=orthogonalEdgeStyle;rounded=0;orthogonalLoop=1;jettySize=auto;html=1;exitX=1;exitY=0.5;exitDx=0;exitDy=0;entryX=0;entryY=0.5;entryDx=0;entryDy=0;" edge="1" parent="1" source="F6hUvUynQKpErKbhB6TS-4" target="F6hUvUynQKpErKbhB6TS-12">
          <mxGeometry relative="1" as="geometry" />
        </mxCell>
        <mxCell id="F6hUvUynQKpErKbhB6TS-4" value="sélectionner un&lt;br&gt;jeu" style="ellipse;whiteSpace=wrap;html=1;" vertex="1" parent="1">
          <mxGeometry x="190" y="160" width="90" height="60" as="geometry" />
        </mxCell>
        <mxCell id="F6hUvUynQKpErKbhB6TS-10" value="Créer sa collection" style="ellipse;whiteSpace=wrap;html=1;" vertex="1" parent="1">
          <mxGeometry x="369" y="65" width="106" height="70" as="geometry" />
        </mxCell>
        <mxCell id="F6hUvUynQKpErKbhB6TS-12" value="Voir la collection&lt;br&gt;complète du jeu" style="ellipse;whiteSpace=wrap;html=1;" vertex="1" parent="1">
          <mxGeometry x="369" y="155" width="111" height="70" as="geometry" />
        </mxCell>
        <mxCell id="F6hUvUynQKpErKbhB6TS-18" style="edgeStyle=orthogonalEdgeStyle;rounded=0;orthogonalLoop=1;jettySize=auto;html=1;exitX=0.5;exitY=0.5;exitDx=0;exitDy=0;exitPerimeter=0;entryX=0;entryY=0.5;entryDx=0;entryDy=0;" edge="1" parent="1" source="F6hUvUynQKpErKbhB6TS-16" target="F6hUvUynQKpErKbhB6TS-17">
          <mxGeometry relative="1" as="geometry" />
        </mxCell>
        <mxCell id="F6hUvUynQKpErKbhB6TS-16" value="Admin" style="shape=umlActor;verticalLabelPosition=bottom;verticalAlign=top;html=1;outlineConnect=0;" vertex="1" parent="1">
          <mxGeometry x="70" y="270" width="30" height="60" as="geometry" />
        </mxCell>
        <mxCell id="F6hUvUynQKpErKbhB6TS-17" value="Gérer l&#39;administration&lt;br&gt;du site" style="ellipse;whiteSpace=wrap;html=1;" vertex="1" parent="1">
          <mxGeometry x="175" y="260" width="120" height="80" as="geometry" />
        </mxCell>
        <mxCell id="F6hUvUynQKpErKbhB6TS-19" value="&lt;font style=&quot;font-size: 25px&quot;&gt;USE CASE&lt;/font&gt;" style="rounded=0;whiteSpace=wrap;html=1;fillColor=#6a00ff;strokeColor=#3700CC;fontColor=#ffffff;" vertex="1" parent="1">
          <mxGeometry x="80" y="-60" width="680" height="60" as="geometry" />
        </mxCell>
        <mxCell id="F6hUvUynQKpErKbhB6TS-20" value="&lt;font style=&quot;font-size: 25px&quot;&gt;MCD&lt;/font&gt;" style="rounded=0;whiteSpace=wrap;html=1;fillColor=#6a00ff;strokeColor=#3700CC;fontColor=#ffffff;" vertex="1" parent="1">
          <mxGeometry x="80" y="480" width="680" height="60" as="geometry" />
        </mxCell>
        <mxCell id="F6hUvUynQKpErKbhB6TS-81" style="edgeStyle=orthogonalEdgeStyle;rounded=0;orthogonalLoop=1;jettySize=auto;html=1;exitX=0.5;exitY=1;exitDx=0;exitDy=0;entryX=0.5;entryY=0;entryDx=0;entryDy=0;" edge="1" parent="1" source="F6hUvUynQKpErKbhB6TS-82" target="F6hUvUynQKpErKbhB6TS-49">
          <mxGeometry relative="1" as="geometry" />
        </mxCell>
        <mxCell id="F6hUvUynQKpErKbhB6TS-23" value="User" style="shape=table;startSize=30;container=1;collapsible=1;childLayout=tableLayout;fixedRows=1;rowLines=0;fontStyle=1;align=center;resizeLast=1;" vertex="1" parent="1">
          <mxGeometry x="115" y="560" width="180" height="220" as="geometry" />
        </mxCell>
        <mxCell id="F6hUvUynQKpErKbhB6TS-24" value="" style="shape=partialRectangle;collapsible=0;dropTarget=0;pointerEvents=0;fillColor=none;top=0;left=0;bottom=1;right=0;points=[[0,0.5],[1,0.5]];portConstraint=eastwest;" vertex="1" parent="F6hUvUynQKpErKbhB6TS-23">
          <mxGeometry y="30" width="180" height="30" as="geometry" />
        </mxCell>
        <mxCell id="F6hUvUynQKpErKbhB6TS-25" value="PK" style="shape=partialRectangle;connectable=0;fillColor=none;top=0;left=0;bottom=0;right=0;fontStyle=1;overflow=hidden;" vertex="1" parent="F6hUvUynQKpErKbhB6TS-24">
          <mxGeometry width="30" height="30" as="geometry" />
        </mxCell>
        <mxCell id="F6hUvUynQKpErKbhB6TS-26" value="ID" style="shape=partialRectangle;connectable=0;fillColor=none;top=0;left=0;bottom=0;right=0;align=left;spacingLeft=6;fontStyle=5;overflow=hidden;" vertex="1" parent="F6hUvUynQKpErKbhB6TS-24">
          <mxGeometry x="30" width="150" height="30" as="geometry" />
        </mxCell>
        <mxCell id="F6hUvUynQKpErKbhB6TS-27" value="" style="shape=partialRectangle;collapsible=0;dropTarget=0;pointerEvents=0;fillColor=none;top=0;left=0;bottom=0;right=0;points=[[0,0.5],[1,0.5]];portConstraint=eastwest;" vertex="1" parent="F6hUvUynQKpErKbhB6TS-23">
          <mxGeometry y="60" width="180" height="30" as="geometry" />
        </mxCell>
        <mxCell id="F6hUvUynQKpErKbhB6TS-28" value="" style="shape=partialRectangle;connectable=0;fillColor=none;top=0;left=0;bottom=0;right=0;editable=1;overflow=hidden;" vertex="1" parent="F6hUvUynQKpErKbhB6TS-27">
          <mxGeometry width="30" height="30" as="geometry" />
        </mxCell>
        <mxCell id="F6hUvUynQKpErKbhB6TS-29" value="email" style="shape=partialRectangle;connectable=0;fillColor=none;top=0;left=0;bottom=0;right=0;align=left;spacingLeft=6;overflow=hidden;" vertex="1" parent="F6hUvUynQKpErKbhB6TS-27">
          <mxGeometry x="30" width="150" height="30" as="geometry" />
        </mxCell>
        <mxCell id="F6hUvUynQKpErKbhB6TS-30" value="" style="shape=partialRectangle;collapsible=0;dropTarget=0;pointerEvents=0;fillColor=none;top=0;left=0;bottom=0;right=0;points=[[0,0.5],[1,0.5]];portConstraint=eastwest;" vertex="1" parent="F6hUvUynQKpErKbhB6TS-23">
          <mxGeometry y="90" width="180" height="30" as="geometry" />
        </mxCell>
        <mxCell id="F6hUvUynQKpErKbhB6TS-31" value="" style="shape=partialRectangle;connectable=0;fillColor=none;top=0;left=0;bottom=0;right=0;editable=1;overflow=hidden;" vertex="1" parent="F6hUvUynQKpErKbhB6TS-30">
          <mxGeometry width="30" height="30" as="geometry" />
        </mxCell>
        <mxCell id="F6hUvUynQKpErKbhB6TS-32" value="pseudo" style="shape=partialRectangle;connectable=0;fillColor=none;top=0;left=0;bottom=0;right=0;align=left;spacingLeft=6;overflow=hidden;" vertex="1" parent="F6hUvUynQKpErKbhB6TS-30">
          <mxGeometry x="30" width="150" height="30" as="geometry" />
        </mxCell>
        <mxCell id="F6hUvUynQKpErKbhB6TS-33" value="" style="shape=partialRectangle;collapsible=0;dropTarget=0;pointerEvents=0;fillColor=none;top=0;left=0;bottom=0;right=0;points=[[0,0.5],[1,0.5]];portConstraint=eastwest;" vertex="1" parent="F6hUvUynQKpErKbhB6TS-23">
          <mxGeometry y="120" width="180" height="30" as="geometry" />
        </mxCell>
        <mxCell id="F6hUvUynQKpErKbhB6TS-34" value="" style="shape=partialRectangle;connectable=0;fillColor=none;top=0;left=0;bottom=0;right=0;editable=1;overflow=hidden;" vertex="1" parent="F6hUvUynQKpErKbhB6TS-33">
          <mxGeometry width="30" height="30" as="geometry" />
        </mxCell>
        <mxCell id="F6hUvUynQKpErKbhB6TS-35" value="nom" style="shape=partialRectangle;connectable=0;fillColor=none;top=0;left=0;bottom=0;right=0;align=left;spacingLeft=6;overflow=hidden;" vertex="1" parent="F6hUvUynQKpErKbhB6TS-33">
          <mxGeometry x="30" width="150" height="30" as="geometry" />
        </mxCell>
        <mxCell id="F6hUvUynQKpErKbhB6TS-36" value="Carte" style="shape=table;startSize=30;container=1;collapsible=1;childLayout=tableLayout;fixedRows=1;rowLines=0;fontStyle=1;align=center;resizeLast=1;" vertex="1" parent="1">
          <mxGeometry x="625" y="690" width="180" height="210" as="geometry" />
        </mxCell>
        <mxCell id="F6hUvUynQKpErKbhB6TS-37" value="" style="shape=partialRectangle;collapsible=0;dropTarget=0;pointerEvents=0;fillColor=none;top=0;left=0;bottom=1;right=0;points=[[0,0.5],[1,0.5]];portConstraint=eastwest;" vertex="1" parent="F6hUvUynQKpErKbhB6TS-36">
          <mxGeometry y="30" width="180" height="30" as="geometry" />
        </mxCell>
        <mxCell id="F6hUvUynQKpErKbhB6TS-38" value="PK" style="shape=partialRectangle;connectable=0;fillColor=none;top=0;left=0;bottom=0;right=0;fontStyle=1;overflow=hidden;" vertex="1" parent="F6hUvUynQKpErKbhB6TS-37">
          <mxGeometry width="30" height="30" as="geometry" />
        </mxCell>
        <mxCell id="F6hUvUynQKpErKbhB6TS-39" value="ID" style="shape=partialRectangle;connectable=0;fillColor=none;top=0;left=0;bottom=0;right=0;align=left;spacingLeft=6;fontStyle=5;overflow=hidden;" vertex="1" parent="F6hUvUynQKpErKbhB6TS-37">
          <mxGeometry x="30" width="150" height="30" as="geometry" />
        </mxCell>
        <mxCell id="F6hUvUynQKpErKbhB6TS-40" value="" style="shape=partialRectangle;collapsible=0;dropTarget=0;pointerEvents=0;fillColor=none;top=0;left=0;bottom=0;right=0;points=[[0,0.5],[1,0.5]];portConstraint=eastwest;" vertex="1" parent="F6hUvUynQKpErKbhB6TS-36">
          <mxGeometry y="60" width="180" height="30" as="geometry" />
        </mxCell>
        <mxCell id="F6hUvUynQKpErKbhB6TS-41" value="" style="shape=partialRectangle;connectable=0;fillColor=none;top=0;left=0;bottom=0;right=0;editable=1;overflow=hidden;" vertex="1" parent="F6hUvUynQKpErKbhB6TS-40">
          <mxGeometry width="30" height="30" as="geometry" />
        </mxCell>
        <mxCell id="F6hUvUynQKpErKbhB6TS-42" value="nom" style="shape=partialRectangle;connectable=0;fillColor=none;top=0;left=0;bottom=0;right=0;align=left;spacingLeft=6;overflow=hidden;" vertex="1" parent="F6hUvUynQKpErKbhB6TS-40">
          <mxGeometry x="30" width="150" height="30" as="geometry" />
        </mxCell>
        <mxCell id="F6hUvUynQKpErKbhB6TS-43" value="" style="shape=partialRectangle;collapsible=0;dropTarget=0;pointerEvents=0;fillColor=none;top=0;left=0;bottom=0;right=0;points=[[0,0.5],[1,0.5]];portConstraint=eastwest;" vertex="1" parent="F6hUvUynQKpErKbhB6TS-36">
          <mxGeometry y="90" width="180" height="30" as="geometry" />
        </mxCell>
        <mxCell id="F6hUvUynQKpErKbhB6TS-44" value="" style="shape=partialRectangle;connectable=0;fillColor=none;top=0;left=0;bottom=0;right=0;editable=1;overflow=hidden;" vertex="1" parent="F6hUvUynQKpErKbhB6TS-43">
          <mxGeometry width="30" height="30" as="geometry" />
        </mxCell>
        <mxCell id="F6hUvUynQKpErKbhB6TS-45" value="state" style="shape=partialRectangle;connectable=0;fillColor=none;top=0;left=0;bottom=0;right=0;align=left;spacingLeft=6;overflow=hidden;" vertex="1" parent="F6hUvUynQKpErKbhB6TS-43">
          <mxGeometry x="30" width="150" height="30" as="geometry" />
        </mxCell>
        <mxCell id="F6hUvUynQKpErKbhB6TS-46" value="" style="shape=partialRectangle;collapsible=0;dropTarget=0;pointerEvents=0;fillColor=none;top=0;left=0;bottom=0;right=0;points=[[0,0.5],[1,0.5]];portConstraint=eastwest;" vertex="1" parent="F6hUvUynQKpErKbhB6TS-36">
          <mxGeometry y="120" width="180" height="30" as="geometry" />
        </mxCell>
        <mxCell id="F6hUvUynQKpErKbhB6TS-47" value="" style="shape=partialRectangle;connectable=0;fillColor=none;top=0;left=0;bottom=0;right=0;editable=1;overflow=hidden;" vertex="1" parent="F6hUvUynQKpErKbhB6TS-46">
          <mxGeometry width="30" height="30" as="geometry" />
        </mxCell>
        <mxCell id="F6hUvUynQKpErKbhB6TS-48" value="caracteristique" style="shape=partialRectangle;connectable=0;fillColor=none;top=0;left=0;bottom=0;right=0;align=left;spacingLeft=6;overflow=hidden;" vertex="1" parent="F6hUvUynQKpErKbhB6TS-46">
          <mxGeometry x="30" width="150" height="30" as="geometry" />
        </mxCell>
        <mxCell id="F6hUvUynQKpErKbhB6TS-49" value="Collection" style="shape=table;startSize=30;container=1;collapsible=1;childLayout=tableLayout;fixedRows=1;rowLines=0;fontStyle=1;align=center;resizeLast=1;" vertex="1" parent="1">
          <mxGeometry x="115" y="955" width="180" height="160" as="geometry" />
        </mxCell>
        <mxCell id="F6hUvUynQKpErKbhB6TS-50" value="" style="shape=partialRectangle;collapsible=0;dropTarget=0;pointerEvents=0;fillColor=none;top=0;left=0;bottom=1;right=0;points=[[0,0.5],[1,0.5]];portConstraint=eastwest;" vertex="1" parent="F6hUvUynQKpErKbhB6TS-49">
          <mxGeometry y="30" width="180" height="30" as="geometry" />
        </mxCell>
        <mxCell id="F6hUvUynQKpErKbhB6TS-51" value="PK" style="shape=partialRectangle;connectable=0;fillColor=none;top=0;left=0;bottom=0;right=0;fontStyle=1;overflow=hidden;" vertex="1" parent="F6hUvUynQKpErKbhB6TS-50">
          <mxGeometry width="30" height="30" as="geometry" />
        </mxCell>
        <mxCell id="F6hUvUynQKpErKbhB6TS-52" value="ID" style="shape=partialRectangle;connectable=0;fillColor=none;top=0;left=0;bottom=0;right=0;align=left;spacingLeft=6;fontStyle=5;overflow=hidden;" vertex="1" parent="F6hUvUynQKpErKbhB6TS-50">
          <mxGeometry x="30" width="150" height="30" as="geometry" />
        </mxCell>
        <mxCell id="F6hUvUynQKpErKbhB6TS-53" value="" style="shape=partialRectangle;collapsible=0;dropTarget=0;pointerEvents=0;fillColor=none;top=0;left=0;bottom=0;right=0;points=[[0,0.5],[1,0.5]];portConstraint=eastwest;" vertex="1" parent="F6hUvUynQKpErKbhB6TS-49">
          <mxGeometry y="60" width="180" height="30" as="geometry" />
        </mxCell>
        <mxCell id="F6hUvUynQKpErKbhB6TS-54" value="" style="shape=partialRectangle;connectable=0;fillColor=none;top=0;left=0;bottom=0;right=0;editable=1;overflow=hidden;" vertex="1" parent="F6hUvUynQKpErKbhB6TS-53">
          <mxGeometry width="30" height="30" as="geometry" />
        </mxCell>
        <mxCell id="F6hUvUynQKpErKbhB6TS-55" value="nom" style="shape=partialRectangle;connectable=0;fillColor=none;top=0;left=0;bottom=0;right=0;align=left;spacingLeft=6;overflow=hidden;" vertex="1" parent="F6hUvUynQKpErKbhB6TS-53">
          <mxGeometry x="30" width="150" height="30" as="geometry" />
        </mxCell>
        <mxCell id="F6hUvUynQKpErKbhB6TS-56" value="" style="shape=partialRectangle;collapsible=0;dropTarget=0;pointerEvents=0;fillColor=none;top=0;left=0;bottom=0;right=0;points=[[0,0.5],[1,0.5]];portConstraint=eastwest;" vertex="1" parent="F6hUvUynQKpErKbhB6TS-49">
          <mxGeometry y="90" width="180" height="30" as="geometry" />
        </mxCell>
        <mxCell id="F6hUvUynQKpErKbhB6TS-57" value="" style="shape=partialRectangle;connectable=0;fillColor=none;top=0;left=0;bottom=0;right=0;editable=1;overflow=hidden;" vertex="1" parent="F6hUvUynQKpErKbhB6TS-56">
          <mxGeometry width="30" height="30" as="geometry" />
        </mxCell>
        <mxCell id="F6hUvUynQKpErKbhB6TS-58" value="jeu" style="shape=partialRectangle;connectable=0;fillColor=none;top=0;left=0;bottom=0;right=0;align=left;spacingLeft=6;overflow=hidden;" vertex="1" parent="F6hUvUynQKpErKbhB6TS-56">
          <mxGeometry x="30" width="150" height="30" as="geometry" />
        </mxCell>
        <mxCell id="F6hUvUynQKpErKbhB6TS-59" value="" style="shape=partialRectangle;collapsible=0;dropTarget=0;pointerEvents=0;fillColor=none;top=0;left=0;bottom=0;right=0;points=[[0,0.5],[1,0.5]];portConstraint=eastwest;" vertex="1" parent="F6hUvUynQKpErKbhB6TS-49">
          <mxGeometry y="120" width="180" height="30" as="geometry" />
        </mxCell>
        <mxCell id="F6hUvUynQKpErKbhB6TS-60" value="" style="shape=partialRectangle;connectable=0;fillColor=none;top=0;left=0;bottom=0;right=0;editable=1;overflow=hidden;" vertex="1" parent="F6hUvUynQKpErKbhB6TS-59">
          <mxGeometry width="30" height="30" as="geometry" />
        </mxCell>
        <mxCell id="F6hUvUynQKpErKbhB6TS-61" value="user_id" style="shape=partialRectangle;connectable=0;fillColor=none;top=0;left=0;bottom=0;right=0;align=left;spacingLeft=6;overflow=hidden;" vertex="1" parent="F6hUvUynQKpErKbhB6TS-59">
          <mxGeometry x="30" width="150" height="30" as="geometry" />
        </mxCell>
        <mxCell id="F6hUvUynQKpErKbhB6TS-62" value="prenom" style="shape=partialRectangle;connectable=0;fillColor=none;top=0;left=0;bottom=0;right=0;align=left;spacingLeft=6;overflow=hidden;" vertex="1" parent="1">
          <mxGeometry x="145" y="710" width="150" height="30" as="geometry" />
        </mxCell>
        <mxCell id="F6hUvUynQKpErKbhB6TS-63" value="mdp" style="shape=partialRectangle;connectable=0;fillColor=none;top=0;left=0;bottom=0;right=0;align=left;spacingLeft=6;overflow=hidden;" vertex="1" parent="1">
          <mxGeometry x="145" y="740" width="150" height="30" as="geometry" />
        </mxCell>
        <mxCell id="F6hUvUynQKpErKbhB6TS-77" value="type" style="shape=partialRectangle;connectable=0;fillColor=none;top=0;left=0;bottom=0;right=0;align=left;spacingLeft=6;overflow=hidden;" vertex="1" parent="1">
          <mxGeometry x="655" y="840" width="150" height="30" as="geometry" />
        </mxCell>
        <mxCell id="F6hUvUynQKpErKbhB6TS-79" value="numéro" style="shape=partialRectangle;connectable=0;fillColor=none;top=0;left=0;bottom=0;right=0;align=left;spacingLeft=6;overflow=hidden;" vertex="1" parent="1">
          <mxGeometry x="655" y="870" width="150" height="30" as="geometry" />
        </mxCell>
        <mxCell id="F6hUvUynQKpErKbhB6TS-82" value="CREER" style="rounded=1;whiteSpace=wrap;html=1;" vertex="1" parent="1">
          <mxGeometry x="145" y="830" width="120" height="60" as="geometry" />
        </mxCell>
        <mxCell id="F6hUvUynQKpErKbhB6TS-83" style="edgeStyle=orthogonalEdgeStyle;rounded=0;orthogonalLoop=1;jettySize=auto;html=1;exitX=0.5;exitY=1;exitDx=0;exitDy=0;entryX=0.5;entryY=0;entryDx=0;entryDy=0;" edge="1" parent="1" source="F6hUvUynQKpErKbhB6TS-23" target="F6hUvUynQKpErKbhB6TS-82">
          <mxGeometry relative="1" as="geometry">
            <mxPoint x="205" y="780" as="sourcePoint" />
            <mxPoint x="205" y="955" as="targetPoint" />
          </mxGeometry>
        </mxCell>
        <mxCell id="F6hUvUynQKpErKbhB6TS-89" style="edgeStyle=orthogonalEdgeStyle;rounded=0;orthogonalLoop=1;jettySize=auto;html=1;exitX=0.75;exitY=0;exitDx=0;exitDy=0;entryX=0;entryY=0.5;entryDx=0;entryDy=0;" edge="1" parent="1" source="F6hUvUynQKpErKbhB6TS-84" target="F6hUvUynQKpErKbhB6TS-46">
          <mxGeometry relative="1" as="geometry" />
        </mxCell>
        <mxCell id="F6hUvUynQKpErKbhB6TS-84" value="COMPOSÉ" style="rounded=1;whiteSpace=wrap;html=1;" vertex="1" parent="1">
          <mxGeometry x="405" y="900" width="120" height="60" as="geometry" />
        </mxCell>
        <mxCell id="F6hUvUynQKpErKbhB6TS-85" style="edgeStyle=orthogonalEdgeStyle;rounded=0;orthogonalLoop=1;jettySize=auto;html=1;exitX=1;exitY=0.5;exitDx=0;exitDy=0;entryX=0;entryY=0.5;entryDx=0;entryDy=0;" edge="1" parent="1" source="F6hUvUynQKpErKbhB6TS-53" target="F6hUvUynQKpErKbhB6TS-84">
          <mxGeometry relative="1" as="geometry" />
        </mxCell>
        <mxCell id="F6hUvUynQKpErKbhB6TS-92" style="edgeStyle=orthogonalEdgeStyle;rounded=0;orthogonalLoop=1;jettySize=auto;html=1;exitX=1;exitY=0.5;exitDx=0;exitDy=0;entryX=0;entryY=0.5;entryDx=0;entryDy=0;" edge="1" parent="1" source="F6hUvUynQKpErKbhB6TS-90" target="F6hUvUynQKpErKbhB6TS-40">
          <mxGeometry relative="1" as="geometry" />
        </mxCell>
        <mxCell id="F6hUvUynQKpErKbhB6TS-90" value="VOIR" style="rounded=1;whiteSpace=wrap;html=1;" vertex="1" parent="1">
          <mxGeometry x="350" y="680" width="120" height="60" as="geometry" />
        </mxCell>
        <mxCell id="F6hUvUynQKpErKbhB6TS-91" style="edgeStyle=orthogonalEdgeStyle;rounded=0;orthogonalLoop=1;jettySize=auto;html=1;exitX=1;exitY=0.5;exitDx=0;exitDy=0;" edge="1" parent="1" source="F6hUvUynQKpErKbhB6TS-27" target="F6hUvUynQKpErKbhB6TS-90">
          <mxGeometry relative="1" as="geometry" />
        </mxCell>
        <mxCell id="F6hUvUynQKpErKbhB6TS-94" value="0,N" style="text;html=1;align=center;verticalAlign=middle;resizable=0;points=[];autosize=1;" vertex="1" parent="1">
          <mxGeometry x="305" y="610" width="30" height="20" as="geometry" />
        </mxCell>
        <mxCell id="F6hUvUynQKpErKbhB6TS-95" value="0,N" style="text;html=1;align=center;verticalAlign=middle;resizable=0;points=[];autosize=1;" vertex="1" parent="1">
          <mxGeometry x="165" y="790" width="30" height="20" as="geometry" />
        </mxCell>
        <mxCell id="F6hUvUynQKpErKbhB6TS-96" value="1,N" style="text;html=1;align=center;verticalAlign=middle;resizable=0;points=[];autosize=1;" vertex="1" parent="1">
          <mxGeometry x="295" y="1040" width="30" height="20" as="geometry" />
        </mxCell>
        <mxCell id="F6hUvUynQKpErKbhB6TS-98" value="0,N" style="text;html=1;align=center;verticalAlign=middle;resizable=0;points=[];autosize=1;" vertex="1" parent="1">
          <mxGeometry x="460" y="870" width="30" height="20" as="geometry" />
        </mxCell>
      </root>
    </mxGraphModel>
  </diagram>
</mxfile>
